<svg xmlns="http://www.w3.org/2000/svg" enable-background="new 0 0 64 64" viewBox="0 0 64 64"><path d="M44.85,25.81l-9.81-11.8l0.03-1.02c2.05-1.99,5.35-3.58,5.38-3.6c0.2-0.1,0.31-0.31,0.28-0.52
		c-0.04-0.22-0.22-0.38-0.43-0.41c-2.78-0.31-6.3,1.59-7.3,2.17l-0.68-0.41c-0.18-0.11-0.4-0.1-0.57,0.04l-2.08,1.7
		c-0.16,0.13-0.22,0.35-0.15,0.55l0.28,0.74c-0.76,0.87-3.32,3.95-3.55,6.73c-0.02,0.22,0.11,0.42,0.32,0.5
		c0.06,0.02,0.12,0.03,0.18,0.03c0.15,0,0.3-0.07,0.39-0.2c0.02-0.03,2.24-2.94,4.59-4.57l1,0.18l9.65,11.93
		c0.17,0.21,0.41,0.34,0.68,0.37h0.11c0.23,0,0.45-0.08,0.63-0.23l0.94-0.76c0.21-0.18,0.33-0.41,0.36-0.69
		C45.11,26.28,45.03,26.01,44.85,25.81z M31.68,14.73c-0.13-0.02-0.26,0.01-0.35,0.08c-1.32,0.87-2.58,2.11-3.5,3.12
		c0.99-2.22,2.87-4.22,2.89-4.24c0.13-0.14,0.17-0.33,0.11-0.51l-0.27-0.7l1.54-1.25l0.63,0.38c0.16,0.1,0.36,0.1,0.52,0
		c0.03-0.02,2.36-1.45,4.74-2c-1.18,0.71-2.64,1.69-3.75,2.82c-0.09,0.09-0.14,0.21-0.15,0.33l-0.03,1.18l-1.21,0.98L31.68,14.73z
		 M43.14,27.22l-9.46-11.7l0.8-0.66l9.62,11.6L43.14,27.22z"/><path d="M52.82,12.14L40.83,0.15C40.73,0.06,40.62,0,40.48,0H23.51c-0.13,0-0.26,0.06-0.34,0.15L11.18,12.14
		c-0.1,0.1-0.15,0.22-0.15,0.35v16.97c0,0.13,0.05,0.26,0.15,0.34L23.17,41.8c0.09,0.1,0.22,0.15,0.34,0.15h4.33v21.56
		c0,0.28,0.22,0.49,0.49,0.49h7.33c0.28,0,0.49-0.22,0.49-0.49V41.94h4.32c0.14,0,0.26-0.05,0.35-0.15L52.82,29.8
		c0.09-0.09,0.15-0.22,0.15-0.34V12.49C52.97,12.36,52.91,12.24,52.82,12.14z M35.17,63.02h-6.34V41.94h6.34V63.02z M51.99,29.25
		L40.28,40.96H23.72L12.01,29.25V12.69L23.72,0.98h16.56l11.71,11.71V29.25z"/><rect width="6.34" height="21.07" x="28.83" y="41.94" fill="#ef5b5b"/><rect width="1.16" height="21.07" x="34.01" y="41.94" fill="#f16768"/><rect width="1.15" height="21.07" x="28.83" y="41.94" fill="#e85554"/><path d="M49.6,13.48l-10.1-10.1c-0.1-0.09-0.22-0.14-0.35-0.14H24.85c-0.13,0-0.26,0.05-0.34,0.14l-10.1,10.1
		c-0.1,0.1-0.15,0.22-0.15,0.35v14.29c0,0.13,0.05,0.26,0.15,0.34l10.1,10.1c0.09,0.1,0.22,0.15,0.34,0.15h7.37
		c0.01,0,0.01,0,0.01,0h6.9c0.14,0,0.26-0.05,0.35-0.15l10.1-10.1c0.09-0.09,0.14-0.22,0.14-0.34V13.83
		C49.73,13.7,49.68,13.58,49.6,13.48z M25.06,37.73l-9.82-9.82V14.03l4.33-4.33l3.04,4.09l-1.74,2.72c-0.12,0.19-0.1,0.43,0.05,0.6
		l4.92,5.44l-1.86,3.01c-0.12,0.19-0.09,0.43,0.06,0.59l4.76,5.01l-1.55,2.26c-0.14,0.2-0.11,0.46,0.06,0.63l3.72,3.68H25.06z
		 M48.75,27.91l-9.81,9.82h-6.5l-4.15-4.1l1.54-2.24c0.13-0.2,0.11-0.45-0.05-0.62l-4.77-5.03l1.86-3c0.11-0.19,0.09-0.42-0.06-0.59
		l-4.91-5.43l1.72-2.69c0.11-0.18,0.1-0.4-0.02-0.56L20.28,9l4.78-4.78h13.88l9.81,9.81V27.91z"/><path fill="#c0cbda" d="M37.99,9.61c-1.18,0.71-2.64,1.69-3.75,2.82c-0.09,0.09-0.14,0.21-0.15,0.33l-0.03,1.18l-1.21,0.98l-1.16-0.2
		c-0.13-0.02-0.26,0.01-0.35,0.08c-1.32,0.87-2.58,2.11-3.5,3.12c0.99-2.22,2.87-4.22,2.89-4.24c0.13-0.14,0.17-0.33,0.11-0.51
		l-0.27-0.7l1.54-1.25l0.63,0.38c0.16,0.1,0.36,0.1,0.52,0C33.28,11.59,35.61,10.16,37.99,9.61z"/><polygon fill="#fbd77a" points="44.09 26.47 43.14 27.22 33.67 15.53 34.47 14.87"/><path fill="#8bcef1" d="M31.04,37.73h-5.98l-9.82-9.82V14.03l4.33-4.33l3.04,4.09l-1.74,2.72c-0.12,0.19-0.1,0.43,0.05,0.6l4.92,5.44
		l-1.86,3.01c-0.12,0.19-0.09,0.43,0.06,0.59l4.76,5.01l-1.55,2.26c-0.14,0.2-0.11,0.46,0.06,0.63L31.04,37.73z"/><polygon fill="#78c9f0" points="26.32 37.73 25.06 37.73 15.24 27.91 15.24 14.03 19.57 9.7 20.12 10.42 16.5 14.03 16.5 27.91"/></svg>